{
	"asset":{
		"generator":"Khronos glTF Blender I/O v5.0.21",
		"version":"2.0"
	},
	"scene":0,
	"scenes":[
		{
			"name":"Scene",
			"nodes":[
				31
			]
		}
	],
	"nodes":[
		{
			"name":"handslotl",
			"rotation":[
				1.0644983206020697e-07,
				-5.817130599439224e-08,
				-0.7071067690849304,
				0.7071067690849304
			],
			"translation":[
				5.13851183825409e-10,
				0.0961250588297844,
				-0.05750000476837158
			]
		},
		{
			"children":[
				0
			],
			"name":"handl",
			"rotation":[
				-6.352649526211729e-14,
				-1.7731265945526015e-14,
				-3.947048850955204e-14,
				1
			],
			"translation":[
				-1.687538997430238e-14,
				0.0738258883357048,
				-1.192094174484737e-07
			]
		},
		{
			"children":[
				1
			],
			"name":"wristl",
			"rotation":[
				-2.35286705674298e-07,
				4.607970005565676e-09,
				0.026658091694116592,
				0.9996446371078491
			],
			"scale":[
				0.9999999403953552,
				0.9999999403953552,
				1
			],
			"translation":[
				5.125531998828592e-09,
				0.26004382967948914,
				-2.1610051703646604e-07
			]
		},
		{
			"children":[
				2
			],
			"name":"lowerarml",
			"rotation":[
				2.4548461396989296e-07,
				-8.071528156960994e-08,
				-0.05529647320508957,
				0.9984699487686157
			],
			"translation":[
				-5.189804141991772e-10,
				0.24189728498458862,
				4.479902226961485e-09
			]
		},
		{
			"children":[
				3
			],
			"name":"upperarml",
			"rotation":[
				-0.5141242742538452,
				-0.48546481132507324,
				-0.4854649603366852,
				0.5141244530677795
			],
			"translation":[
				0.2120073288679123,
				0.13413214683532715,
				8.9213060050497e-08
			]
		},
		{
			"name":"head",
			"rotation":[
				-7.480251295222291e-15,
				8.881784197001252e-15,
				-1.324867530293936e-22,
				1
			],
			"translation":[
				-4.49357638372469e-23,
				0.26879656314849854,
				0
			]
		},
		{
			"name":"handslotr",
			"rotation":[
				1.0656656002083764e-07,
				5.805457803376157e-08,
				0.7071067690849304,
				0.7071067690849304
			],
			"translation":[
				-5.13851183825409e-10,
				0.0961250588297844,
				-0.05750000476837158
			]
		},
		{
			"children":[
				6
			],
			"name":"handr",
			"rotation":[
				-1.3271095496259889e-17,
				1.0624607002019705e-14,
				3.945127780230831e-14,
				1
			],
			"translation":[
				1.687538997430238e-14,
				0.0738258883357048,
				-1.1920928244535389e-07
			]
		},
		{
			"children":[
				7
			],
			"name":"wristr",
			"rotation":[
				-2.3529011627942964e-07,
				-4.599238323521604e-09,
				-0.026658091694116592,
				0.9996446371078491
			],
			"scale":[
				0.9999999403953552,
				0.9999999403953552,
				1
			],
			"translation":[
				-5.125517787973877e-09,
				0.26004382967948914,
				-2.1610563294416352e-07
			]
		},
		{
			"children":[
				8
			],
			"name":"lowerarmr",
			"rotation":[
				2.435313888327073e-07,
				4.5312415153375696e-08,
				0.05529647320508957,
				0.9984699487686157
			],
			"translation":[
				1.2367422641546e-09,
				0.24189728498458862,
				3.620116206803914e-09
			]
		},
		{
			"children":[
				9
			],
			"name":"upperarmr",
			"rotation":[
				-0.51412433385849,
				0.48546478152275085,
				0.4854649007320404,
				0.5141244530677795
			],
			"translation":[
				-0.2120073288679123,
				0.13413214683532715,
				7.469969176554514e-08
			]
		},
		{
			"children":[
				4,
				5,
				10
			],
			"name":"chest",
			"rotation":[
				5.582673029641636e-15,
				-8.881784197001252e-15,
				1.1222096686136375e-22,
				1
			],
			"translation":[
				-1.0504770949978253e-22,
				0.3749878406524658,
				3.552713678800501e-15
			]
		},
		{
			"children":[
				11
			],
			"name":"spine",
			"rotation":[
				-2.07245457028841e-15,
				1.7763568394002505e-15,
				-1.460642388104923e-23,
				1
			],
			"translation":[
				-1.9159075849155387e-23,
				0.19197750091552734,
				8.881784197001252e-16
			]
		},
		{
			"name":"toesl",
			"rotation":[
				-1.0215062573593059e-08,
				0.9203547835350037,
				-0.3910844922065735,
				1.7919967376656132e-07
			],
			"scale":[
				1,
				0.9999998807907104,
				0.9999999403953552
			],
			"translation":[
				-1.6149015458211124e-10,
				0.16565002501010895,
				8.797638173518862e-10
			]
		},
		{
			"children":[
				13
			],
			"name":"footl",
			"rotation":[
				-0.455239862203598,
				7.505248333927739e-08,
				-3.8373826782844844e-08,
				0.8903688192367554
			],
			"scale":[
				1,
				1,
				1.0000001192092896
			],
			"translation":[
				-1.4901156752955558e-08,
				0.1494370698928833,
				3.725659780684509e-09
			]
		},
		{
			"children":[
				14
			],
			"name":"lowerlegl",
			"rotation":[
				0.10622712969779968,
				7.684135994168173e-08,
				-7.360600307038112e-08,
				0.9943419098854065
			],
			"translation":[
				-1.1194018156857055e-08,
				0.2270774096250534,
				-2.3207560317928255e-08
			]
		},
		{
			"children":[
				15
			],
			"name":"upperlegl",
			"rotation":[
				0.9998490810394287,
				-6.677772290686335e-08,
				-6.597082347070682e-08,
				0.017373913899064064
			],
			"scale":[
				1,
				1,
				1.000000238418579
			],
			"translation":[
				0.17094504833221436,
				0.11358726024627686,
				1.702706420303457e-08
			]
		},
		{
			"name":"toesr",
			"rotation":[
				4.8837026866976885e-08,
				0.9203547835350037,
				-0.3910844922065735,
				4.0229977571470954e-08
			],
			"scale":[
				1,
				0.9999998807907104,
				0.9999999403953552
			],
			"translation":[
				-1.6149082071592602e-10,
				0.16565002501010895,
				2.8460398482366145e-09
			]
		},
		{
			"children":[
				17
			],
			"name":"footr",
			"rotation":[
				-0.455239862203598,
				7.505242649585853e-08,
				-3.837386941540899e-08,
				0.8903688192367554
			],
			"scale":[
				1,
				1,
				1.0000001192092896
			],
			"translation":[
				1.4901158529312397e-08,
				0.1494370698928833,
				3.725589170500143e-09
			]
		},
		{
			"children":[
				18
			],
			"name":"lowerlegr",
			"rotation":[
				0.10622712969779968,
				-7.671461332847684e-08,
				7.478843855324158e-08,
				0.9943419098854065
			],
			"translation":[
				1.188816689534633e-08,
				0.2270774096250534,
				-2.320748393458416e-08
			]
		},
		{
			"children":[
				19
			],
			"name":"upperlegr",
			"rotation":[
				0.9998490810394287,
				6.737205637818988e-08,
				1.0017320306587862e-07,
				0.017373913899064064
			],
			"scale":[
				1,
				1,
				1.000000238418579
			],
			"translation":[
				-0.17094504833221436,
				0.11358726024627686,
				5.324676255469285e-09
			]
		},
		{
			"children":[
				12,
				16,
				20
			],
			"name":"hips",
			"rotation":[
				-2.347496756173722e-16,
				-1.0331726940648878e-07,
				-1.4136407143083162e-24,
				1
			],
			"translation":[
				-2.117582241918006e-22,
				0.4056633710861206,
				8.881784197001252e-16
			]
		},
		{
			"children":[
				21
			],
			"name":"root",
			"rotation":[
				-8.557132780140364e-09,
				1.2043153674312634e-07,
				-2.0610973407733874e-15,
				1
			]
		},
		{
			"mesh":0,
			"name":"Barbarian_ArmLeft",
			"skin":0
		},
		{
			"mesh":1,
			"name":"Barbarian_ArmRight",
			"skin":0
		},
		{
			"mesh":2,
			"name":"Barbarian_BearHat",
			"skin":0
		},
		{
			"mesh":3,
			"name":"Barbarian_Body",
			"skin":0
		},
		{
			"mesh":4,
			"name":"Barbarian_Head",
			"skin":0
		},
		{
			"mesh":5,
			"name":"Barbarian_LegLeft",
			"skin":0
		},
		{
			"mesh":6,
			"name":"Barbarian_LegRight",
			"skin":0
		},
		{
			"children":[
				23,
				24,
				25,
				26,
				27,
				28,
				29,
				22
			],
			"name":"Rig_Medium"
		},
		{
			"children":[
				30
			],
			"name":"Scene"
		}
	],
	"materials":[
		{
			"doubleSided":true,
			"name":"barbarian",
			"pbrMetallicRoughness":{
				"baseColorTexture":{
					"index":0
				},
				"metallicFactor":0,
				"roughnessFactor":0.5
			}
		}
	],
	"meshes":[
		{
			"name":"Mesh_0",
			"primitives":[
				{
					"attributes":{
						"POSITION":0,
						"NORMAL":1,
						"TEXCOORD_0":2,
						"JOINTS_0":3,
						"WEIGHTS_0":4
					},
					"indices":5,
					"material":0
				}
			]
		},
		{
			"name":"Mesh_1",
			"primitives":[
				{
					"attributes":{
						"POSITION":7,
						"NORMAL":8,
						"TEXCOORD_0":9,
						"JOINTS_0":10,
						"WEIGHTS_0":11
					},
					"indices":12,
					"material":0
				}
			]
		},
		{
			"name":"Mesh_2",
			"primitives":[
				{
					"attributes":{
						"POSITION":13,
						"NORMAL":14,
						"TEXCOORD_0":15,
						"JOINTS_0":16,
						"WEIGHTS_0":17
					},
					"indices":18,
					"material":0
				}
			]
		},
		{
			"name":"Mesh_3",
			"primitives":[
				{
					"attributes":{
						"POSITION":19,
						"NORMAL":20,
						"TEXCOORD_0":21,
						"JOINTS_0":22,
						"WEIGHTS_0":23
					},
					"indices":24,
					"material":0
				}
			]
		},
		{
			"name":"Mesh_4",
			"primitives":[
				{
					"attributes":{
						"POSITION":25,
						"NORMAL":26,
						"TEXCOORD_0":27,
						"JOINTS_0":28,
						"WEIGHTS_0":29
					},
					"indices":30,
					"material":0
				}
			]
		},
		{
			"name":"Mesh_5",
			"primitives":[
				{
					"attributes":{
						"POSITION":31,
						"NORMAL":32,
						"TEXCOORD_0":33,
						"JOINTS_0":34,
						"WEIGHTS_0":35
					},
					"indices":36,
					"material":0
				}
			]
		},
		{
			"name":"Mesh_6",
			"primitives":[
				{
					"attributes":{
						"POSITION":37,
						"NORMAL":38,
						"TEXCOORD_0":39,
						"JOINTS_0":40,
						"WEIGHTS_0":41
					},
					"indices":42,
					"material":0
				}
			]
		}
	],
	"textures":[
		{
			"sampler":0,
			"source":0
		}
	],
	"images":[
		{
			"mimeType":"image/png",
			"name":"baseColor",
			"uri":"baseColor.png"
		}
	],
	"skins":[
		{
			"inverseBindMatrices":6,
			"joints":[
				22,
				21,
				12,
				11,
				4,
				3,
				2,
				1,
				0,
				5,
				10,
				9,
				8,
				7,
				6,
				16,
				15,
				14,
				13,
				20,
				19,
				18,
				17
			],
			"name":"Rig_Medium"
		}
	],
	"accessors":[
		{
			"bufferView":0,
			"componentType":5126,
			"count":589,
			"max":[
				0.9712578058242798,
				1.2428524494171143,
				0.14315976202487946
			],
			"min":[
				0.08885029703378677,
				0.9691325426101685,
				-0.1431596577167511
			],
			"type":"VEC3"
		},
		{
			"bufferView":1,
			"componentType":5126,
			"count":589,
			"type":"VEC3"
		},
		{
			"bufferView":2,
			"componentType":5126,
			"count":589,
			"type":"VEC2"
		},
		{
			"bufferView":3,
			"componentType":5121,
			"count":589,
			"type":"VEC4"
		},
		{
			"bufferView":4,
			"componentType":5126,
			"count":589,
			"type":"VEC4"
		},
		{
			"bufferView":5,
			"componentType":5123,
			"count":2106,
			"type":"SCALAR"
		},
		{
			"bufferView":6,
			"componentType":5126,
			"count":23,
			"type":"MAT4"
		},
		{
			"bufferView":7,
			"componentType":5126,
			"count":589,
			"max":[
				-0.08885029703378677,
				1.2428524494171143,
				0.14315976202487946
			],
			"min":[
				-0.9712578058242798,
				0.9691325426101685,
				-0.1431596577167511
			],
			"type":"VEC3"
		},
		{
			"bufferView":8,
			"componentType":5126,
			"count":589,
			"type":"VEC3"
		},
		{
			"bufferView":9,
			"componentType":5126,
			"count":589,
			"type":"VEC2"
		},
		{
			"bufferView":10,
			"componentType":5121,
			"count":589,
			"type":"VEC4"
		},
		{
			"bufferView":11,
			"componentType":5126,
			"count":589,
			"type":"VEC4"
		},
		{
			"bufferView":12,
			"componentType":5123,
			"count":2106,
			"type":"SCALAR"
		},
		{
			"bufferView":13,
			"componentType":5126,
			"count":1006,
			"max":[
				0.5878046751022339,
				2.2653963565826416,
				0.7533665299415588
			],
			"min":[
				-0.5878046751022339,
				1.1090989112854004,
				-0.5358107089996338
			],
			"type":"VEC3"
		},
		{
			"bufferView":14,
			"componentType":5126,
			"count":1006,
			"type":"VEC3"
		},
		{
			"bufferView":15,
			"componentType":5126,
			"count":1006,
			"type":"VEC2"
		},
		{
			"bufferView":16,
			"componentType":5121,
			"count":1006,
			"type":"VEC4"
		},
		{
			"bufferView":17,
			"componentType":5126,
			"count":1006,
			"type":"VEC4"
		},
		{
			"bufferView":18,
			"componentType":5123,
			"count":3090,
			"type":"SCALAR"
		},
		{
			"bufferView":19,
			"componentType":5126,
			"count":1740,
			"max":[
				0.4506569504737854,
				1.3939282894134521,
				0.36519932746887207
			],
			"min":[
				-0.4420210123062134,
				0.37640804052352905,
				-0.37019675970077515
			],
			"type":"VEC3"
		},
		{
			"bufferView":20,
			"componentType":5126,
			"count":1740,
			"type":"VEC3"
		},
		{
			"bufferView":21,
			"componentType":5126,
			"count":1740,
			"type":"VEC2"
		},
		{
			"bufferView":22,
			"componentType":5121,
			"count":1740,
			"type":"VEC4"
		},
		{
			"bufferView":23,
			"componentType":5126,
			"count":1740,
			"type":"VEC4"
		},
		{
			"bufferView":24,
			"componentType":5123,
			"count":5520,
			"type":"SCALAR"
		},
		{
			"bufferView":25,
			"componentType":5126,
			"count":759,
			"max":[
				0.5426634550094604,
				2.186316967010498,
				0.525001049041748
			],
			"min":[
				-0.5426494479179382,
				1.1345034837722778,
				-0.45999979972839355
			],
			"type":"VEC3"
		},
		{
			"bufferView":26,
			"componentType":5126,
			"count":759,
			"type":"VEC3"
		},
		{
			"bufferView":27,
			"componentType":5126,
			"count":759,
			"type":"VEC2"
		},
		{
			"bufferView":28,
			"componentType":5121,
			"count":759,
			"type":"VEC4"
		},
		{
			"bufferView":29,
			"componentType":5126,
			"count":759,
			"type":"VEC4"
		},
		{
			"bufferView":30,
			"componentType":5123,
			"count":3063,
			"type":"SCALAR"
		},
		{
			"bufferView":31,
			"componentType":5126,
			"count":736,
			"max":[
				0.291181743144989,
				0.5291943550109863,
				0.28061366081237793
			],
			"min":[
				0.045758746564388275,
				-6.951083975081929e-08,
				-0.12776324152946472
			],
			"type":"VEC3"
		},
		{
			"bufferView":32,
			"componentType":5126,
			"count":736,
			"type":"VEC3"
		},
		{
			"bufferView":33,
			"componentType":5126,
			"count":736,
			"type":"VEC2"
		},
		{
			"bufferView":34,
			"componentType":5121,
			"count":736,
			"type":"VEC4"
		},
		{
			"bufferView":35,
			"componentType":5126,
			"count":736,
			"type":"VEC4"
		},
		{
			"bufferView":36,
			"componentType":5123,
			"count":2742,
			"type":"SCALAR"
		},
		{
			"bufferView":37,
			"componentType":5126,
			"count":736,
			"max":[
				-0.04575874283909798,
				0.5291944146156311,
				0.2806136906147003
			],
			"min":[
				-0.291181743144989,
				-6.167315547145336e-08,
				-0.12776322662830353
			],
			"type":"VEC3"
		},
		{
			"bufferView":38,
			"componentType":5126,
			"count":736,
			"type":"VEC3"
		},
		{
			"bufferView":39,
			"componentType":5126,
			"count":736,
			"type":"VEC2"
		},
		{
			"bufferView":40,
			"componentType":5121,
			"count":736,
			"type":"VEC4"
		},
		{
			"bufferView":41,
			"componentType":5126,
			"count":736,
			"type":"VEC4"
		},
		{
			"bufferView":42,
			"componentType":5123,
			"count":2742,
			"type":"SCALAR"
		}
	],
	"bufferViews":[
		{
			"buffer":0,
			"byteLength":7068,
			"byteOffset":0,
			"target":34962
		},
		{
			"buffer":0,
			"byteLength":7068,
			"byteOffset":7068,
			"target":34962
		},
		{
			"buffer":0,
			"byteLength":4712,
			"byteOffset":14136,
			"target":34962
		},
		{
			"buffer":0,
			"byteLength":2356,
			"byteOffset":18848,
			"target":34962
		},
		{
			"buffer":0,
			"byteLength":9424,
			"byteOffset":21204,
			"target":34962
		},
		{
			"buffer":0,
			"byteLength":4212,
			"byteOffset":30628,
			"target":34963
		},
		{
			"buffer":0,
			"byteLength":1472,
			"byteOffset":34840
		},
		{
			"buffer":0,
			"byteLength":7068,
			"byteOffset":36312,
			"target":34962
		},
		{
			"buffer":0,
			"byteLength":7068,
			"byteOffset":43380,
			"target":34962
		},
		{
			"buffer":0,
			"byteLength":4712,
			"byteOffset":50448,
			"target":34962
		},
		{
			"buffer":0,
			"byteLength":2356,
			"byteOffset":55160,
			"target":34962
		},
		{
			"buffer":0,
			"byteLength":9424,
			"byteOffset":57516,
			"target":34962
		},
		{
			"buffer":0,
			"byteLength":4212,
			"byteOffset":66940,
			"target":34963
		},
		{
			"buffer":0,
			"byteLength":12072,
			"byteOffset":71152,
			"target":34962
		},
		{
			"buffer":0,
			"byteLength":12072,
			"byteOffset":83224,
			"target":34962
		},
		{
			"buffer":0,
			"byteLength":8048,
			"byteOffset":95296,
			"target":34962
		},
		{
			"buffer":0,
			"byteLength":4024,
			"byteOffset":103344,
			"target":34962
		},
		{
			"buffer":0,
			"byteLength":16096,
			"byteOffset":107368,
			"target":34962
		},
		{
			"buffer":0,
			"byteLength":6180,
			"byteOffset":123464,
			"target":34963
		},
		{
			"buffer":0,
			"byteLength":20880,
			"byteOffset":129644,
			"target":34962
		},
		{
			"buffer":0,
			"byteLength":20880,
			"byteOffset":150524,
			"target":34962
		},
		{
			"buffer":0,
			"byteLength":13920,
			"byteOffset":171404,
			"target":34962
		},
		{
			"buffer":0,
			"byteLength":6960,
			"byteOffset":185324,
			"target":34962
		},
		{
			"buffer":0,
			"byteLength":27840,
			"byteOffset":192284,
			"target":34962
		},
		{
			"buffer":0,
			"byteLength":11040,
			"byteOffset":220124,
			"target":34963
		},
		{
			"buffer":0,
			"byteLength":9108,
			"byteOffset":231164,
			"target":34962
		},
		{
			"buffer":0,
			"byteLength":9108,
			"byteOffset":240272,
			"target":34962
		},
		{
			"buffer":0,
			"byteLength":6072,
			"byteOffset":249380,
			"target":34962
		},
		{
			"buffer":0,
			"byteLength":3036,
			"byteOffset":255452,
			"target":34962
		},
		{
			"buffer":0,
			"byteLength":12144,
			"byteOffset":258488,
			"target":34962
		},
		{
			"buffer":0,
			"byteLength":6126,
			"byteOffset":270632,
			"target":34963
		},
		{
			"buffer":0,
			"byteLength":8832,
			"byteOffset":276760,
			"target":34962
		},
		{
			"buffer":0,
			"byteLength":8832,
			"byteOffset":285592,
			"target":34962
		},
		{
			"buffer":0,
			"byteLength":5888,
			"byteOffset":294424,
			"target":34962
		},
		{
			"buffer":0,
			"byteLength":2944,
			"byteOffset":300312,
			"target":34962
		},
		{
			"buffer":0,
			"byteLength":11776,
			"byteOffset":303256,
			"target":34962
		},
		{
			"buffer":0,
			"byteLength":5484,
			"byteOffset":315032,
			"target":34963
		},
		{
			"buffer":0,
			"byteLength":8832,
			"byteOffset":320516,
			"target":34962
		},
		{
			"buffer":0,
			"byteLength":8832,
			"byteOffset":329348,
			"target":34962
		},
		{
			"buffer":0,
			"byteLength":5888,
			"byteOffset":338180,
			"target":34962
		},
		{
			"buffer":0,
			"byteLength":2944,
			"byteOffset":344068,
			"target":34962
		},
		{
			"buffer":0,
			"byteLength":11776,
			"byteOffset":347012,
			"target":34962
		},
		{
			"buffer":0,
			"byteLength":5484,
			"byteOffset":358788,
			"target":34963
		}
	],
	"samplers":[
		{
			"magFilter":9729,
			"minFilter":9987
		}
	],
	"buffers":[
		{
			"byteLength":364272,
			"uri":"Barbarian.bin"
		}
	]
}
